<svg width="307" height="36" viewBox="0 0 307 36" fill="none" xmlns="http://www.w3.org/2000/svg">
<mask id="path-1-outside-1_1_40" maskUnits="userSpaceOnUse" x="0.440002" y="0.199997" width="307" height="36" fill="black">
<rect fill="white" x="0.440002" y="0.199997" width="307" height="36"/>
<path d="M12 10H157V23H12V10Z"/>
<path d="M23.904 13.936C22.4533 12.1653 20.6613 11.28 18.528 11.28C17.5893 11.28 16.7147 11.4507 15.904 11.792C15.1147 12.1333 14.432 12.6027 13.856 13.2C13.28 13.776 12.8213 14.4693 12.48 15.28C12.16 16.0907 12 16.9653 12 17.904C12 18.864 12.16 19.7493 12.48 20.56C12.8213 21.3707 13.28 22.0747 13.856 22.672C14.4533 23.2693 15.1467 23.7387 15.936 24.08C16.7253 24.4213 17.5787 24.592 18.496 24.592C20.5013 24.592 22.304 23.7387 23.904 22.032V29.456L23.264 29.68C22.304 30.0213 21.408 30.2667 20.576 30.416C19.744 30.5867 18.9227 30.672 18.112 30.672C16.448 30.672 14.848 30.3627 13.312 29.744C11.7973 29.104 10.4533 28.2187 9.28 27.088C8.128 25.936 7.2 24.5813 6.496 23.024C5.792 21.4453 5.44 19.728 5.44 17.872C5.44 16.016 5.78134 14.32 6.464 12.784C7.168 11.2267 8.096 9.89333 9.248 8.784C10.4213 7.65333 11.776 6.77866 13.312 6.16C14.848 5.52 16.4587 5.2 18.144 5.2C19.104 5.2 20.0427 5.30666 20.96 5.52C21.8987 5.712 22.88 6.02133 23.904 6.448V13.936Z"/>
<path d="M34.855 15.184H43.911V5.872H50.183V30H43.911V20.048H34.855V30H28.583V5.872H34.855V15.184Z"/>
<path d="M61.1913 16.656H62.3753C63.6126 16.656 64.5619 16.4 65.2233 15.888C65.8846 15.376 66.2153 14.64 66.2153 13.68C66.2153 12.72 65.8846 11.984 65.2233 11.472C64.5619 10.96 63.6126 10.704 62.3753 10.704H61.1913V16.656ZM74.9833 30H67.1753L61.1913 20.72V30H54.9193V5.872H64.6793C66.0233 5.872 67.1966 6.07466 68.1993 6.48C69.2019 6.864 70.0233 7.39733 70.6633 8.08C71.3246 8.76266 71.8153 9.552 72.1353 10.448C72.4766 11.344 72.6473 12.304 72.6473 13.328C72.6473 15.1627 72.1993 16.656 71.3033 17.808C70.4286 18.9387 69.1273 19.7067 67.3993 20.112L74.9833 30Z"/>
<path d="M82.3213 17.936C82.3213 18.896 82.5026 19.7813 82.8653 20.592C83.2279 21.4027 83.7186 22.1067 84.3373 22.704C84.9559 23.3013 85.6706 23.7707 86.4813 24.112C87.3133 24.432 88.1879 24.592 89.1053 24.592C90.0226 24.592 90.8866 24.432 91.6973 24.112C92.5293 23.7707 93.2546 23.3013 93.8733 22.704C94.5133 22.1067 95.0146 21.4027 95.3773 20.592C95.7399 19.7813 95.9213 18.896 95.9213 17.936C95.9213 16.976 95.7399 16.0907 95.3773 15.28C95.0146 14.4693 94.5133 13.7653 93.8733 13.168C93.2546 12.5707 92.5293 12.112 91.6973 11.792C90.8866 11.4507 90.0226 11.28 89.1053 11.28C88.1879 11.28 87.3133 11.4507 86.4813 11.792C85.6706 12.112 84.9559 12.5707 84.3373 13.168C83.7186 13.7653 83.2279 14.4693 82.8653 15.28C82.5026 16.0907 82.3213 16.976 82.3213 17.936ZM75.7613 17.936C75.7613 16.144 76.0919 14.48 76.7533 12.944C77.4146 11.3867 78.3319 10.032 79.5053 8.88C80.6786 7.728 82.0759 6.832 83.6973 6.192C85.3399 5.53066 87.1426 5.2 89.1053 5.2C91.0466 5.2 92.8386 5.53066 94.4813 6.192C96.1239 6.832 97.5319 7.728 98.7053 8.88C99.8999 10.032 100.828 11.3867 101.489 12.944C102.151 14.48 102.481 16.144 102.481 17.936C102.481 19.728 102.151 21.4027 101.489 22.96C100.828 24.496 99.8999 25.84 98.7053 26.992C97.5319 28.144 96.1239 29.0507 94.4813 29.712C92.8386 30.352 91.0466 30.672 89.1053 30.672C87.1426 30.672 85.3399 30.352 83.6973 29.712C82.0759 29.0507 80.6786 28.144 79.5053 26.992C78.3319 25.84 77.4146 24.496 76.7533 22.96C76.0919 21.4027 75.7613 19.728 75.7613 17.936Z"/>
<path d="M106.123 30V5.872H112.395L123.979 20.624V5.872H130.219V30H123.979L112.395 15.248V30H106.123Z"/>
<path d="M140.712 17.936C140.712 18.896 140.894 19.7813 141.257 20.592C141.619 21.4027 142.11 22.1067 142.729 22.704C143.347 23.3013 144.062 23.7707 144.872 24.112C145.704 24.432 146.579 24.592 147.496 24.592C148.414 24.592 149.278 24.432 150.089 24.112C150.921 23.7707 151.646 23.3013 152.264 22.704C152.904 22.1067 153.406 21.4027 153.768 20.592C154.131 19.7813 154.312 18.896 154.312 17.936C154.312 16.976 154.131 16.0907 153.768 15.28C153.406 14.4693 152.904 13.7653 152.264 13.168C151.646 12.5707 150.921 12.112 150.089 11.792C149.278 11.4507 148.414 11.28 147.496 11.28C146.579 11.28 145.704 11.4507 144.872 11.792C144.062 12.112 143.347 12.5707 142.729 13.168C142.11 13.7653 141.619 14.4693 141.257 15.28C140.894 16.0907 140.712 16.976 140.712 17.936ZM134.152 17.936C134.152 16.144 134.483 14.48 135.145 12.944C135.806 11.3867 136.723 10.032 137.896 8.88C139.07 7.728 140.467 6.832 142.089 6.192C143.731 5.53066 145.534 5.2 147.496 5.2C149.438 5.2 151.23 5.53066 152.872 6.192C154.515 6.832 155.923 7.728 157.096 8.88C158.291 10.032 159.219 11.3867 159.88 12.944C160.542 14.48 160.872 16.144 160.872 17.936C160.872 19.728 160.542 21.4027 159.88 22.96C159.219 24.496 158.291 25.84 157.096 26.992C155.923 28.144 154.515 29.0507 152.872 29.712C151.23 30.352 149.438 30.672 147.496 30.672C145.534 30.672 143.731 30.352 142.089 29.712C140.467 29.0507 139.07 28.144 137.896 26.992C136.723 25.84 135.806 24.496 135.145 22.96C134.483 21.4027 134.152 19.728 134.152 17.936Z"/>
<path d="M176.258 16.496H188.706C188.706 17.776 188.653 18.9387 188.546 19.984C188.44 21.0293 188.226 22 187.906 22.896C187.458 24.1547 186.85 25.2747 186.082 26.256C185.314 27.216 184.408 28.0267 183.362 28.688C182.338 29.328 181.208 29.8187 179.97 30.16C178.733 30.5013 177.432 30.672 176.066 30.672C174.189 30.672 172.472 30.3627 170.914 29.744C169.378 29.1253 168.056 28.2613 166.946 27.152C165.837 26.0213 164.973 24.6773 164.354 23.12C163.736 21.5413 163.426 19.8027 163.426 17.904C163.426 16.0267 163.725 14.3093 164.322 12.752C164.941 11.1733 165.805 9.82933 166.914 8.72C168.045 7.61066 169.4 6.74666 170.978 6.128C172.557 5.50933 174.317 5.2 176.258 5.2C178.776 5.2 180.984 5.744 182.882 6.832C184.781 7.92 186.285 9.60533 187.394 11.888L181.442 14.352C180.888 13.0293 180.162 12.08 179.266 11.504C178.392 10.928 177.389 10.64 176.258 10.64C175.32 10.64 174.466 10.8213 173.698 11.184C172.93 11.5253 172.269 12.0267 171.714 12.688C171.181 13.328 170.754 14.1067 170.434 15.024C170.136 15.9413 169.986 16.9653 169.986 18.096C169.986 19.12 170.114 20.0693 170.37 20.944C170.648 21.8187 171.053 22.576 171.586 23.216C172.12 23.856 172.781 24.3573 173.57 24.72C174.36 25.0613 175.277 25.232 176.322 25.232C176.941 25.232 177.538 25.168 178.114 25.04C178.69 24.8907 179.202 24.6667 179.65 24.368C180.12 24.048 180.504 23.6427 180.802 23.152C181.101 22.6613 181.304 22.064 181.41 21.36H176.258V16.496Z"/>
<path d="M198.622 5.872V18.992C198.622 19.696 198.644 20.4213 198.686 21.168C198.75 21.8933 198.911 22.5547 199.167 23.152C199.444 23.7493 199.871 24.24 200.447 24.624C201.023 24.9867 201.833 25.168 202.878 25.168C203.924 25.168 204.724 24.9867 205.279 24.624C205.855 24.24 206.281 23.7493 206.559 23.152C206.836 22.5547 206.996 21.8933 207.038 21.168C207.102 20.4213 207.134 19.696 207.134 18.992V5.872H213.374V19.856C213.374 23.6107 212.511 26.352 210.783 28.08C209.076 29.808 206.441 30.672 202.878 30.672C199.316 30.672 196.671 29.808 194.943 28.08C193.215 26.352 192.35 23.6107 192.35 19.856V5.872H198.622Z"/>
<path d="M231.852 11.184H224.396V15.216H231.436V20.528H224.396V24.688H231.852V30H218.124V5.872H231.852V11.184Z"/>
<path d="M249.302 12.048C248.62 11.4933 247.937 11.088 247.254 10.832C246.572 10.5547 245.91 10.416 245.27 10.416C244.46 10.416 243.798 10.608 243.286 10.992C242.774 11.376 242.518 11.8773 242.518 12.496C242.518 12.9227 242.646 13.2747 242.902 13.552C243.158 13.8293 243.489 14.0747 243.894 14.288C244.321 14.48 244.79 14.6507 245.302 14.8C245.836 14.9493 246.358 15.1093 246.87 15.28C248.918 15.9627 250.412 16.88 251.35 18.032C252.31 19.1627 252.79 20.6453 252.79 22.48C252.79 23.7173 252.577 24.8373 252.15 25.84C251.745 26.8427 251.137 27.7067 250.326 28.432C249.537 29.136 248.556 29.68 247.382 30.064C246.23 30.4693 244.918 30.672 243.446 30.672C240.396 30.672 237.569 29.7653 234.966 27.952L237.654 22.896C238.593 23.728 239.521 24.3467 240.438 24.752C241.356 25.1573 242.262 25.36 243.158 25.36C244.182 25.36 244.94 25.1253 245.43 24.656C245.942 24.1867 246.198 23.6533 246.198 23.056C246.198 22.6933 246.134 22.384 246.006 22.128C245.878 21.8507 245.665 21.6053 245.366 21.392C245.068 21.1573 244.673 20.944 244.182 20.752C243.713 20.56 243.137 20.3467 242.454 20.112C241.644 19.856 240.844 19.5787 240.054 19.28C239.286 18.96 238.593 18.544 237.974 18.032C237.377 17.52 236.886 16.88 236.502 16.112C236.14 15.3227 235.958 14.3307 235.958 13.136C235.958 11.9413 236.15 10.864 236.534 9.904C236.94 8.92266 237.494 8.09066 238.198 7.408C238.924 6.704 239.798 6.16 240.822 5.776C241.868 5.392 243.03 5.2 244.31 5.2C245.505 5.2 246.753 5.37066 248.054 5.712C249.356 6.032 250.604 6.512 251.798 7.152L249.302 12.048Z"/>
<path d="M269.67 12.048C268.987 11.4933 268.304 11.088 267.622 10.832C266.939 10.5547 266.278 10.416 265.638 10.416C264.827 10.416 264.166 10.608 263.654 10.992C263.142 11.376 262.886 11.8773 262.886 12.496C262.886 12.9227 263.014 13.2747 263.27 13.552C263.526 13.8293 263.856 14.0747 264.262 14.288C264.688 14.48 265.158 14.6507 265.67 14.8C266.203 14.9493 266.726 15.1093 267.238 15.28C269.286 15.9627 270.779 16.88 271.718 18.032C272.678 19.1627 273.158 20.6453 273.158 22.48C273.158 23.7173 272.944 24.8373 272.518 25.84C272.112 26.8427 271.504 27.7067 270.694 28.432C269.904 29.136 268.923 29.68 267.75 30.064C266.598 30.4693 265.286 30.672 263.814 30.672C260.763 30.672 257.936 29.7653 255.334 27.952L258.022 22.896C258.96 23.728 259.888 24.3467 260.806 24.752C261.723 25.1573 262.63 25.36 263.526 25.36C264.55 25.36 265.307 25.1253 265.798 24.656C266.31 24.1867 266.566 23.6533 266.566 23.056C266.566 22.6933 266.502 22.384 266.374 22.128C266.246 21.8507 266.032 21.6053 265.734 21.392C265.435 21.1573 265.04 20.944 264.55 20.752C264.08 20.56 263.504 20.3467 262.822 20.112C262.011 19.856 261.211 19.5787 260.422 19.28C259.654 18.96 258.96 18.544 258.342 18.032C257.744 17.52 257.254 16.88 256.87 16.112C256.507 15.3227 256.326 14.3307 256.326 13.136C256.326 11.9413 256.518 10.864 256.902 9.904C257.307 8.92266 257.862 8.09066 258.566 7.408C259.291 6.704 260.166 6.16 261.19 5.776C262.235 5.392 263.398 5.2 264.678 5.2C265.872 5.2 267.12 5.37066 268.422 5.712C269.723 6.032 270.971 6.512 272.166 7.152L269.67 12.048Z"/>
<path d="M283.061 16.656H284.245C285.483 16.656 286.432 16.4 287.093 15.888C287.755 15.376 288.085 14.64 288.085 13.68C288.085 12.72 287.755 11.984 287.093 11.472C286.432 10.96 285.483 10.704 284.245 10.704H283.061V16.656ZM296.853 30H289.045L283.061 20.72V30H276.789V5.872H286.549C287.893 5.872 289.067 6.07466 290.069 6.48C291.072 6.864 291.893 7.39733 292.533 8.08C293.195 8.76266 293.685 9.552 294.005 10.448C294.347 11.344 294.517 12.304 294.517 13.328C294.517 15.1627 294.069 16.656 293.173 17.808C292.299 18.9387 290.997 19.7067 289.269 20.112L296.853 30Z"/>
</mask>
<path d="M12 10H157V23H12V10Z" fill="#C31210"/>
<path d="M23.904 13.936C22.4533 12.1653 20.6613 11.28 18.528 11.28C17.5893 11.28 16.7147 11.4507 15.904 11.792C15.1147 12.1333 14.432 12.6027 13.856 13.2C13.28 13.776 12.8213 14.4693 12.48 15.28C12.16 16.0907 12 16.9653 12 17.904C12 18.864 12.16 19.7493 12.48 20.56C12.8213 21.3707 13.28 22.0747 13.856 22.672C14.4533 23.2693 15.1467 23.7387 15.936 24.08C16.7253 24.4213 17.5787 24.592 18.496 24.592C20.5013 24.592 22.304 23.7387 23.904 22.032V29.456L23.264 29.68C22.304 30.0213 21.408 30.2667 20.576 30.416C19.744 30.5867 18.9227 30.672 18.112 30.672C16.448 30.672 14.848 30.3627 13.312 29.744C11.7973 29.104 10.4533 28.2187 9.28 27.088C8.128 25.936 7.2 24.5813 6.496 23.024C5.792 21.4453 5.44 19.728 5.44 17.872C5.44 16.016 5.78134 14.32 6.464 12.784C7.168 11.2267 8.096 9.89333 9.248 8.784C10.4213 7.65333 11.776 6.77866 13.312 6.16C14.848 5.52 16.4587 5.2 18.144 5.2C19.104 5.2 20.0427 5.30666 20.96 5.52C21.8987 5.712 22.88 6.02133 23.904 6.448V13.936Z" fill="white"/>
<path d="M34.855 15.184H43.911V5.872H50.183V30H43.911V20.048H34.855V30H28.583V5.872H34.855V15.184Z" fill="white"/>
<path d="M61.1913 16.656H62.3753C63.6126 16.656 64.5619 16.4 65.2233 15.888C65.8846 15.376 66.2153 14.64 66.2153 13.68C66.2153 12.72 65.8846 11.984 65.2233 11.472C64.5619 10.96 63.6126 10.704 62.3753 10.704H61.1913V16.656ZM74.9833 30H67.1753L61.1913 20.72V30H54.9193V5.872H64.6793C66.0233 5.872 67.1966 6.07466 68.1993 6.48C69.2019 6.864 70.0233 7.39733 70.6633 8.08C71.3246 8.76266 71.8153 9.552 72.1353 10.448C72.4766 11.344 72.6473 12.304 72.6473 13.328C72.6473 15.1627 72.1993 16.656 71.3033 17.808C70.4286 18.9387 69.1273 19.7067 67.3993 20.112L74.9833 30Z" fill="white"/>
<path d="M82.3213 17.936C82.3213 18.896 82.5026 19.7813 82.8653 20.592C83.2279 21.4027 83.7186 22.1067 84.3373 22.704C84.9559 23.3013 85.6706 23.7707 86.4813 24.112C87.3133 24.432 88.1879 24.592 89.1053 24.592C90.0226 24.592 90.8866 24.432 91.6973 24.112C92.5293 23.7707 93.2546 23.3013 93.8733 22.704C94.5133 22.1067 95.0146 21.4027 95.3773 20.592C95.7399 19.7813 95.9213 18.896 95.9213 17.936C95.9213 16.976 95.7399 16.0907 95.3773 15.28C95.0146 14.4693 94.5133 13.7653 93.8733 13.168C93.2546 12.5707 92.5293 12.112 91.6973 11.792C90.8866 11.4507 90.0226 11.28 89.1053 11.28C88.1879 11.28 87.3133 11.4507 86.4813 11.792C85.6706 12.112 84.9559 12.5707 84.3373 13.168C83.7186 13.7653 83.2279 14.4693 82.8653 15.28C82.5026 16.0907 82.3213 16.976 82.3213 17.936ZM75.7613 17.936C75.7613 16.144 76.0919 14.48 76.7533 12.944C77.4146 11.3867 78.3319 10.032 79.5053 8.88C80.6786 7.728 82.0759 6.832 83.6973 6.192C85.3399 5.53066 87.1426 5.2 89.1053 5.2C91.0466 5.2 92.8386 5.53066 94.4813 6.192C96.1239 6.832 97.5319 7.728 98.7053 8.88C99.8999 10.032 100.828 11.3867 101.489 12.944C102.151 14.48 102.481 16.144 102.481 17.936C102.481 19.728 102.151 21.4027 101.489 22.96C100.828 24.496 99.8999 25.84 98.7053 26.992C97.5319 28.144 96.1239 29.0507 94.4813 29.712C92.8386 30.352 91.0466 30.672 89.1053 30.672C87.1426 30.672 85.3399 30.352 83.6973 29.712C82.0759 29.0507 80.6786 28.144 79.5053 26.992C78.3319 25.84 77.4146 24.496 76.7533 22.96C76.0919 21.4027 75.7613 19.728 75.7613 17.936Z" fill="white"/>
<path d="M106.123 30V5.872H112.395L123.979 20.624V5.872H130.219V30H123.979L112.395 15.248V30H106.123Z" fill="white"/>
<path d="M140.712 17.936C140.712 18.896 140.894 19.7813 141.257 20.592C141.619 21.4027 142.11 22.1067 142.729 22.704C143.347 23.3013 144.062 23.7707 144.872 24.112C145.704 24.432 146.579 24.592 147.496 24.592C148.414 24.592 149.278 24.432 150.089 24.112C150.921 23.7707 151.646 23.3013 152.264 22.704C152.904 22.1067 153.406 21.4027 153.768 20.592C154.131 19.7813 154.312 18.896 154.312 17.936C154.312 16.976 154.131 16.0907 153.768 15.28C153.406 14.4693 152.904 13.7653 152.264 13.168C151.646 12.5707 150.921 12.112 150.089 11.792C149.278 11.4507 148.414 11.28 147.496 11.28C146.579 11.28 145.704 11.4507 144.872 11.792C144.062 12.112 143.347 12.5707 142.729 13.168C142.11 13.7653 141.619 14.4693 141.257 15.28C140.894 16.0907 140.712 16.976 140.712 17.936ZM134.152 17.936C134.152 16.144 134.483 14.48 135.145 12.944C135.806 11.3867 136.723 10.032 137.896 8.88C139.07 7.728 140.467 6.832 142.089 6.192C143.731 5.53066 145.534 5.2 147.496 5.2C149.438 5.2 151.23 5.53066 152.872 6.192C154.515 6.832 155.923 7.728 157.096 8.88C158.291 10.032 159.219 11.3867 159.88 12.944C160.542 14.48 160.872 16.144 160.872 17.936C160.872 19.728 160.542 21.4027 159.88 22.96C159.219 24.496 158.291 25.84 157.096 26.992C155.923 28.144 154.515 29.0507 152.872 29.712C151.23 30.352 149.438 30.672 147.496 30.672C145.534 30.672 143.731 30.352 142.089 29.712C140.467 29.0507 139.07 28.144 137.896 26.992C136.723 25.84 135.806 24.496 135.145 22.96C134.483 21.4027 134.152 19.728 134.152 17.936Z" fill="white"/>
<path d="M176.258 16.496H188.706C188.706 17.776 188.653 18.9387 188.546 19.984C188.44 21.0293 188.226 22 187.906 22.896C187.458 24.1547 186.85 25.2747 186.082 26.256C185.314 27.216 184.408 28.0267 183.362 28.688C182.338 29.328 181.208 29.8187 179.97 30.16C178.733 30.5013 177.432 30.672 176.066 30.672C174.189 30.672 172.472 30.3627 170.914 29.744C169.378 29.1253 168.056 28.2613 166.946 27.152C165.837 26.0213 164.973 24.6773 164.354 23.12C163.736 21.5413 163.426 19.8027 163.426 17.904C163.426 16.0267 163.725 14.3093 164.322 12.752C164.941 11.1733 165.805 9.82933 166.914 8.72C168.045 7.61066 169.4 6.74666 170.978 6.128C172.557 5.50933 174.317 5.2 176.258 5.2C178.776 5.2 180.984 5.744 182.882 6.832C184.781 7.92 186.285 9.60533 187.394 11.888L181.442 14.352C180.888 13.0293 180.162 12.08 179.266 11.504C178.392 10.928 177.389 10.64 176.258 10.64C175.32 10.64 174.466 10.8213 173.698 11.184C172.93 11.5253 172.269 12.0267 171.714 12.688C171.181 13.328 170.754 14.1067 170.434 15.024C170.136 15.9413 169.986 16.9653 169.986 18.096C169.986 19.12 170.114 20.0693 170.37 20.944C170.648 21.8187 171.053 22.576 171.586 23.216C172.12 23.856 172.781 24.3573 173.57 24.72C174.36 25.0613 175.277 25.232 176.322 25.232C176.941 25.232 177.538 25.168 178.114 25.04C178.69 24.8907 179.202 24.6667 179.65 24.368C180.12 24.048 180.504 23.6427 180.802 23.152C181.101 22.6613 181.304 22.064 181.41 21.36H176.258V16.496Z" fill="white"/>
<path d="M198.622 5.872V18.992C198.622 19.696 198.644 20.4213 198.686 21.168C198.75 21.8933 198.911 22.5547 199.167 23.152C199.444 23.7493 199.871 24.24 200.447 24.624C201.023 24.9867 201.833 25.168 202.878 25.168C203.924 25.168 204.724 24.9867 205.279 24.624C205.855 24.24 206.281 23.7493 206.559 23.152C206.836 22.5547 206.996 21.8933 207.038 21.168C207.102 20.4213 207.134 19.696 207.134 18.992V5.872H213.374V19.856C213.374 23.6107 212.511 26.352 210.783 28.08C209.076 29.808 206.441 30.672 202.878 30.672C199.316 30.672 196.671 29.808 194.943 28.08C193.215 26.352 192.35 23.6107 192.35 19.856V5.872H198.622Z" fill="white"/>
<path d="M231.852 11.184H224.396V15.216H231.436V20.528H224.396V24.688H231.852V30H218.124V5.872H231.852V11.184Z" fill="white"/>
<path d="M249.302 12.048C248.62 11.4933 247.937 11.088 247.254 10.832C246.572 10.5547 245.91 10.416 245.27 10.416C244.46 10.416 243.798 10.608 243.286 10.992C242.774 11.376 242.518 11.8773 242.518 12.496C242.518 12.9227 242.646 13.2747 242.902 13.552C243.158 13.8293 243.489 14.0747 243.894 14.288C244.321 14.48 244.79 14.6507 245.302 14.8C245.836 14.9493 246.358 15.1093 246.87 15.28C248.918 15.9627 250.412 16.88 251.35 18.032C252.31 19.1627 252.79 20.6453 252.79 22.48C252.79 23.7173 252.577 24.8373 252.15 25.84C251.745 26.8427 251.137 27.7067 250.326 28.432C249.537 29.136 248.556 29.68 247.382 30.064C246.23 30.4693 244.918 30.672 243.446 30.672C240.396 30.672 237.569 29.7653 234.966 27.952L237.654 22.896C238.593 23.728 239.521 24.3467 240.438 24.752C241.356 25.1573 242.262 25.36 243.158 25.36C244.182 25.36 244.94 25.1253 245.43 24.656C245.942 24.1867 246.198 23.6533 246.198 23.056C246.198 22.6933 246.134 22.384 246.006 22.128C245.878 21.8507 245.665 21.6053 245.366 21.392C245.068 21.1573 244.673 20.944 244.182 20.752C243.713 20.56 243.137 20.3467 242.454 20.112C241.644 19.856 240.844 19.5787 240.054 19.28C239.286 18.96 238.593 18.544 237.974 18.032C237.377 17.52 236.886 16.88 236.502 16.112C236.14 15.3227 235.958 14.3307 235.958 13.136C235.958 11.9413 236.15 10.864 236.534 9.904C236.94 8.92266 237.494 8.09066 238.198 7.408C238.924 6.704 239.798 6.16 240.822 5.776C241.868 5.392 243.03 5.2 244.31 5.2C245.505 5.2 246.753 5.37066 248.054 5.712C249.356 6.032 250.604 6.512 251.798 7.152L249.302 12.048Z" fill="white"/>
<path d="M269.67 12.048C268.987 11.4933 268.304 11.088 267.622 10.832C266.939 10.5547 266.278 10.416 265.638 10.416C264.827 10.416 264.166 10.608 263.654 10.992C263.142 11.376 262.886 11.8773 262.886 12.496C262.886 12.9227 263.014 13.2747 263.27 13.552C263.526 13.8293 263.856 14.0747 264.262 14.288C264.688 14.48 265.158 14.6507 265.67 14.8C266.203 14.9493 266.726 15.1093 267.238 15.28C269.286 15.9627 270.779 16.88 271.718 18.032C272.678 19.1627 273.158 20.6453 273.158 22.48C273.158 23.7173 272.944 24.8373 272.518 25.84C272.112 26.8427 271.504 27.7067 270.694 28.432C269.904 29.136 268.923 29.68 267.75 30.064C266.598 30.4693 265.286 30.672 263.814 30.672C260.763 30.672 257.936 29.7653 255.334 27.952L258.022 22.896C258.96 23.728 259.888 24.3467 260.806 24.752C261.723 25.1573 262.63 25.36 263.526 25.36C264.55 25.36 265.307 25.1253 265.798 24.656C266.31 24.1867 266.566 23.6533 266.566 23.056C266.566 22.6933 266.502 22.384 266.374 22.128C266.246 21.8507 266.032 21.6053 265.734 21.392C265.435 21.1573 265.04 20.944 264.55 20.752C264.08 20.56 263.504 20.3467 262.822 20.112C262.011 19.856 261.211 19.5787 260.422 19.28C259.654 18.96 258.96 18.544 258.342 18.032C257.744 17.52 257.254 16.88 256.87 16.112C256.507 15.3227 256.326 14.3307 256.326 13.136C256.326 11.9413 256.518 10.864 256.902 9.904C257.307 8.92266 257.862 8.09066 258.566 7.408C259.291 6.704 260.166 6.16 261.19 5.776C262.235 5.392 263.398 5.2 264.678 5.2C265.872 5.2 267.12 5.37066 268.422 5.712C269.723 6.032 270.971 6.512 272.166 7.152L269.67 12.048Z" fill="white"/>
<path d="M283.061 16.656H284.245C285.483 16.656 286.432 16.4 287.093 15.888C287.755 15.376 288.085 14.64 288.085 13.68C288.085 12.72 287.755 11.984 287.093 11.472C286.432 10.96 285.483 10.704 284.245 10.704H283.061V16.656ZM296.853 30H289.045L283.061 20.72V30H276.789V5.872H286.549C287.893 5.872 289.067 6.07466 290.069 6.48C291.072 6.864 291.893 7.39733 292.533 8.08C293.195 8.76266 293.685 9.552 294.005 10.448C294.347 11.344 294.517 12.304 294.517 13.328C294.517 15.1627 294.069 16.656 293.173 17.808C292.299 18.9387 290.997 19.7067 289.269 20.112L296.853 30Z" fill="white"/>
<path d="M12 10H157V23H12V10Z" stroke="#C31210" stroke-width="10" mask="url(#path-1-outside-1_1_40)"/>
<path d="M23.904 13.936C22.4533 12.1653 20.6613 11.28 18.528 11.28C17.5893 11.28 16.7147 11.4507 15.904 11.792C15.1147 12.1333 14.432 12.6027 13.856 13.2C13.28 13.776 12.8213 14.4693 12.48 15.28C12.16 16.0907 12 16.9653 12 17.904C12 18.864 12.16 19.7493 12.48 20.56C12.8213 21.3707 13.28 22.0747 13.856 22.672C14.4533 23.2693 15.1467 23.7387 15.936 24.08C16.7253 24.4213 17.5787 24.592 18.496 24.592C20.5013 24.592 22.304 23.7387 23.904 22.032V29.456L23.264 29.68C22.304 30.0213 21.408 30.2667 20.576 30.416C19.744 30.5867 18.9227 30.672 18.112 30.672C16.448 30.672 14.848 30.3627 13.312 29.744C11.7973 29.104 10.4533 28.2187 9.28 27.088C8.128 25.936 7.2 24.5813 6.496 23.024C5.792 21.4453 5.44 19.728 5.44 17.872C5.44 16.016 5.78134 14.32 6.464 12.784C7.168 11.2267 8.096 9.89333 9.248 8.784C10.4213 7.65333 11.776 6.77866 13.312 6.16C14.848 5.52 16.4587 5.2 18.144 5.2C19.104 5.2 20.0427 5.30666 20.96 5.52C21.8987 5.712 22.88 6.02133 23.904 6.448V13.936Z" stroke="#C31210" stroke-width="10" mask="url(#path-1-outside-1_1_40)"/>
<path d="M34.855 15.184H43.911V5.872H50.183V30H43.911V20.048H34.855V30H28.583V5.872H34.855V15.184Z" stroke="#C31210" stroke-width="10" mask="url(#path-1-outside-1_1_40)"/>
<path d="M61.1913 16.656H62.3753C63.6126 16.656 64.5619 16.4 65.2233 15.888C65.8846 15.376 66.2153 14.64 66.2153 13.68C66.2153 12.72 65.8846 11.984 65.2233 11.472C64.5619 10.96 63.6126 10.704 62.3753 10.704H61.1913V16.656ZM74.9833 30H67.1753L61.1913 20.72V30H54.9193V5.872H64.6793C66.0233 5.872 67.1966 6.07466 68.1993 6.48C69.2019 6.864 70.0233 7.39733 70.6633 8.08C71.3246 8.76266 71.8153 9.552 72.1353 10.448C72.4766 11.344 72.6473 12.304 72.6473 13.328C72.6473 15.1627 72.1993 16.656 71.3033 17.808C70.4286 18.9387 69.1273 19.7067 67.3993 20.112L74.9833 30Z" stroke="#C31210" stroke-width="10" mask="url(#path-1-outside-1_1_40)"/>
<path d="M82.3213 17.936C82.3213 18.896 82.5026 19.7813 82.8653 20.592C83.2279 21.4027 83.7186 22.1067 84.3373 22.704C84.9559 23.3013 85.6706 23.7707 86.4813 24.112C87.3133 24.432 88.1879 24.592 89.1053 24.592C90.0226 24.592 90.8866 24.432 91.6973 24.112C92.5293 23.7707 93.2546 23.3013 93.8733 22.704C94.5133 22.1067 95.0146 21.4027 95.3773 20.592C95.7399 19.7813 95.9213 18.896 95.9213 17.936C95.9213 16.976 95.7399 16.0907 95.3773 15.28C95.0146 14.4693 94.5133 13.7653 93.8733 13.168C93.2546 12.5707 92.5293 12.112 91.6973 11.792C90.8866 11.4507 90.0226 11.28 89.1053 11.28C88.1879 11.28 87.3133 11.4507 86.4813 11.792C85.6706 12.112 84.9559 12.5707 84.3373 13.168C83.7186 13.7653 83.2279 14.4693 82.8653 15.28C82.5026 16.0907 82.3213 16.976 82.3213 17.936ZM75.7613 17.936C75.7613 16.144 76.0919 14.48 76.7533 12.944C77.4146 11.3867 78.3319 10.032 79.5053 8.88C80.6786 7.728 82.0759 6.832 83.6973 6.192C85.3399 5.53066 87.1426 5.2 89.1053 5.2C91.0466 5.2 92.8386 5.53066 94.4813 6.192C96.1239 6.832 97.5319 7.728 98.7053 8.88C99.8999 10.032 100.828 11.3867 101.489 12.944C102.151 14.48 102.481 16.144 102.481 17.936C102.481 19.728 102.151 21.4027 101.489 22.96C100.828 24.496 99.8999 25.84 98.7053 26.992C97.5319 28.144 96.1239 29.0507 94.4813 29.712C92.8386 30.352 91.0466 30.672 89.1053 30.672C87.1426 30.672 85.3399 30.352 83.6973 29.712C82.0759 29.0507 80.6786 28.144 79.5053 26.992C78.3319 25.84 77.4146 24.496 76.7533 22.96C76.0919 21.4027 75.7613 19.728 75.7613 17.936Z" stroke="#C31210" stroke-width="10" mask="url(#path-1-outside-1_1_40)"/>
<path d="M106.123 30V5.872H112.395L123.979 20.624V5.872H130.219V30H123.979L112.395 15.248V30H106.123Z" stroke="#C31210" stroke-width="10" mask="url(#path-1-outside-1_1_40)"/>
<path d="M140.712 17.936C140.712 18.896 140.894 19.7813 141.257 20.592C141.619 21.4027 142.11 22.1067 142.729 22.704C143.347 23.3013 144.062 23.7707 144.872 24.112C145.704 24.432 146.579 24.592 147.496 24.592C148.414 24.592 149.278 24.432 150.089 24.112C150.921 23.7707 151.646 23.3013 152.264 22.704C152.904 22.1067 153.406 21.4027 153.768 20.592C154.131 19.7813 154.312 18.896 154.312 17.936C154.312 16.976 154.131 16.0907 153.768 15.28C153.406 14.4693 152.904 13.7653 152.264 13.168C151.646 12.5707 150.921 12.112 150.089 11.792C149.278 11.4507 148.414 11.28 147.496 11.28C146.579 11.28 145.704 11.4507 144.872 11.792C144.062 12.112 143.347 12.5707 142.729 13.168C142.11 13.7653 141.619 14.4693 141.257 15.28C140.894 16.0907 140.712 16.976 140.712 17.936ZM134.152 17.936C134.152 16.144 134.483 14.48 135.145 12.944C135.806 11.3867 136.723 10.032 137.896 8.88C139.07 7.728 140.467 6.832 142.089 6.192C143.731 5.53066 145.534 5.2 147.496 5.2C149.438 5.2 151.23 5.53066 152.872 6.192C154.515 6.832 155.923 7.728 157.096 8.88C158.291 10.032 159.219 11.3867 159.88 12.944C160.542 14.48 160.872 16.144 160.872 17.936C160.872 19.728 160.542 21.4027 159.88 22.96C159.219 24.496 158.291 25.84 157.096 26.992C155.923 28.144 154.515 29.0507 152.872 29.712C151.23 30.352 149.438 30.672 147.496 30.672C145.534 30.672 143.731 30.352 142.089 29.712C140.467 29.0507 139.07 28.144 137.896 26.992C136.723 25.84 135.806 24.496 135.145 22.96C134.483 21.4027 134.152 19.728 134.152 17.936Z" stroke="#C31210" stroke-width="10" mask="url(#path-1-outside-1_1_40)"/>
<path d="M176.258 16.496H188.706C188.706 17.776 188.653 18.9387 188.546 19.984C188.44 21.0293 188.226 22 187.906 22.896C187.458 24.1547 186.85 25.2747 186.082 26.256C185.314 27.216 184.408 28.0267 183.362 28.688C182.338 29.328 181.208 29.8187 179.97 30.16C178.733 30.5013 177.432 30.672 176.066 30.672C174.189 30.672 172.472 30.3627 170.914 29.744C169.378 29.1253 168.056 28.2613 166.946 27.152C165.837 26.0213 164.973 24.6773 164.354 23.12C163.736 21.5413 163.426 19.8027 163.426 17.904C163.426 16.0267 163.725 14.3093 164.322 12.752C164.941 11.1733 165.805 9.82933 166.914 8.72C168.045 7.61066 169.4 6.74666 170.978 6.128C172.557 5.50933 174.317 5.2 176.258 5.2C178.776 5.2 180.984 5.744 182.882 6.832C184.781 7.92 186.285 9.60533 187.394 11.888L181.442 14.352C180.888 13.0293 180.162 12.08 179.266 11.504C178.392 10.928 177.389 10.64 176.258 10.64C175.32 10.64 174.466 10.8213 173.698 11.184C172.93 11.5253 172.269 12.0267 171.714 12.688C171.181 13.328 170.754 14.1067 170.434 15.024C170.136 15.9413 169.986 16.9653 169.986 18.096C169.986 19.12 170.114 20.0693 170.37 20.944C170.648 21.8187 171.053 22.576 171.586 23.216C172.12 23.856 172.781 24.3573 173.57 24.72C174.36 25.0613 175.277 25.232 176.322 25.232C176.941 25.232 177.538 25.168 178.114 25.04C178.69 24.8907 179.202 24.6667 179.65 24.368C180.12 24.048 180.504 23.6427 180.802 23.152C181.101 22.6613 181.304 22.064 181.41 21.36H176.258V16.496Z" stroke="#C31210" stroke-width="10" mask="url(#path-1-outside-1_1_40)"/>
<path d="M198.622 5.872V18.992C198.622 19.696 198.644 20.4213 198.686 21.168C198.75 21.8933 198.911 22.5547 199.167 23.152C199.444 23.7493 199.871 24.24 200.447 24.624C201.023 24.9867 201.833 25.168 202.878 25.168C203.924 25.168 204.724 24.9867 205.279 24.624C205.855 24.24 206.281 23.7493 206.559 23.152C206.836 22.5547 206.996 21.8933 207.038 21.168C207.102 20.4213 207.134 19.696 207.134 18.992V5.872H213.374V19.856C213.374 23.6107 212.511 26.352 210.783 28.08C209.076 29.808 206.441 30.672 202.878 30.672C199.316 30.672 196.671 29.808 194.943 28.08C193.215 26.352 192.35 23.6107 192.35 19.856V5.872H198.622Z" stroke="#C31210" stroke-width="10" mask="url(#path-1-outside-1_1_40)"/>
<path d="M231.852 11.184H224.396V15.216H231.436V20.528H224.396V24.688H231.852V30H218.124V5.872H231.852V11.184Z" stroke="#C31210" stroke-width="10" mask="url(#path-1-outside-1_1_40)"/>
<path d="M249.302 12.048C248.62 11.4933 247.937 11.088 247.254 10.832C246.572 10.5547 245.91 10.416 245.27 10.416C244.46 10.416 243.798 10.608 243.286 10.992C242.774 11.376 242.518 11.8773 242.518 12.496C242.518 12.9227 242.646 13.2747 242.902 13.552C243.158 13.8293 243.489 14.0747 243.894 14.288C244.321 14.48 244.79 14.6507 245.302 14.8C245.836 14.9493 246.358 15.1093 246.87 15.28C248.918 15.9627 250.412 16.88 251.35 18.032C252.31 19.1627 252.79 20.6453 252.79 22.48C252.79 23.7173 252.577 24.8373 252.15 25.84C251.745 26.8427 251.137 27.7067 250.326 28.432C249.537 29.136 248.556 29.68 247.382 30.064C246.23 30.4693 244.918 30.672 243.446 30.672C240.396 30.672 237.569 29.7653 234.966 27.952L237.654 22.896C238.593 23.728 239.521 24.3467 240.438 24.752C241.356 25.1573 242.262 25.36 243.158 25.36C244.182 25.36 244.94 25.1253 245.43 24.656C245.942 24.1867 246.198 23.6533 246.198 23.056C246.198 22.6933 246.134 22.384 246.006 22.128C245.878 21.8507 245.665 21.6053 245.366 21.392C245.068 21.1573 244.673 20.944 244.182 20.752C243.713 20.56 243.137 20.3467 242.454 20.112C241.644 19.856 240.844 19.5787 240.054 19.28C239.286 18.96 238.593 18.544 237.974 18.032C237.377 17.52 236.886 16.88 236.502 16.112C236.14 15.3227 235.958 14.3307 235.958 13.136C235.958 11.9413 236.15 10.864 236.534 9.904C236.94 8.92266 237.494 8.09066 238.198 7.408C238.924 6.704 239.798 6.16 240.822 5.776C241.868 5.392 243.03 5.2 244.31 5.2C245.505 5.2 246.753 5.37066 248.054 5.712C249.356 6.032 250.604 6.512 251.798 7.152L249.302 12.048Z" stroke="#C31210" stroke-width="10" mask="url(#path-1-outside-1_1_40)"/>
<path d="M269.67 12.048C268.987 11.4933 268.304 11.088 267.622 10.832C266.939 10.5547 266.278 10.416 265.638 10.416C264.827 10.416 264.166 10.608 263.654 10.992C263.142 11.376 262.886 11.8773 262.886 12.496C262.886 12.9227 263.014 13.2747 263.27 13.552C263.526 13.8293 263.856 14.0747 264.262 14.288C264.688 14.48 265.158 14.6507 265.67 14.8C266.203 14.9493 266.726 15.1093 267.238 15.28C269.286 15.9627 270.779 16.88 271.718 18.032C272.678 19.1627 273.158 20.6453 273.158 22.48C273.158 23.7173 272.944 24.8373 272.518 25.84C272.112 26.8427 271.504 27.7067 270.694 28.432C269.904 29.136 268.923 29.68 267.75 30.064C266.598 30.4693 265.286 30.672 263.814 30.672C260.763 30.672 257.936 29.7653 255.334 27.952L258.022 22.896C258.96 23.728 259.888 24.3467 260.806 24.752C261.723 25.1573 262.63 25.36 263.526 25.36C264.55 25.36 265.307 25.1253 265.798 24.656C266.31 24.1867 266.566 23.6533 266.566 23.056C266.566 22.6933 266.502 22.384 266.374 22.128C266.246 21.8507 266.032 21.6053 265.734 21.392C265.435 21.1573 265.04 20.944 264.55 20.752C264.08 20.56 263.504 20.3467 262.822 20.112C262.011 19.856 261.211 19.5787 260.422 19.28C259.654 18.96 258.96 18.544 258.342 18.032C257.744 17.52 257.254 16.88 256.87 16.112C256.507 15.3227 256.326 14.3307 256.326 13.136C256.326 11.9413 256.518 10.864 256.902 9.904C257.307 8.92266 257.862 8.09066 258.566 7.408C259.291 6.704 260.166 6.16 261.19 5.776C262.235 5.392 263.398 5.2 264.678 5.2C265.872 5.2 267.12 5.37066 268.422 5.712C269.723 6.032 270.971 6.512 272.166 7.152L269.67 12.048Z" stroke="#C31210" stroke-width="10" mask="url(#path-1-outside-1_1_40)"/>
<path d="M283.061 16.656H284.245C285.483 16.656 286.432 16.4 287.093 15.888C287.755 15.376 288.085 14.64 288.085 13.68C288.085 12.72 287.755 11.984 287.093 11.472C286.432 10.96 285.483 10.704 284.245 10.704H283.061V16.656ZM296.853 30H289.045L283.061 20.72V30H276.789V5.872H286.549C287.893 5.872 289.067 6.07466 290.069 6.48C291.072 6.864 291.893 7.39733 292.533 8.08C293.195 8.76266 293.685 9.552 294.005 10.448C294.347 11.344 294.517 12.304 294.517 13.328C294.517 15.1627 294.069 16.656 293.173 17.808C292.299 18.9387 290.997 19.7067 289.269 20.112L296.853 30Z" stroke="#C31210" stroke-width="10" mask="url(#path-1-outside-1_1_40)"/>
</svg>
